<svg xmlns="http://www.w3.org/2000/svg" viewBox="0 0 256 256" shape-rendering="crispEdges">
  <rect width="256" height="256" fill="#66bdf5"/>
  <path d="M0 0h256v256H0z" fill="url(#grid)"/>
  <g fill="#ffffff">
    <rect x="14" y="42" width="14" height="12"/>
    <rect x="28" y="50" width="14" height="12"/>
    <rect x="42" y="58" width="14" height="12"/>
    <rect x="0" y="62" width="70" height="12"/>
    <rect x="190" y="58" width="14" height="12"/>
    <rect x="204" y="50" width="14" height="12"/>
    <rect x="218" y="42" width="14" height="12"/>
    <rect x="176" y="70" width="78" height="12"/>
    <rect x="0" y="110" width="18" height="12"/>
    <rect x="18" y="96" width="18" height="12"/>
    <rect x="36" y="110" width="18" height="12"/>
  </g>
  <g fill="#d4efff" opacity="0.75">
    <rect x="4" y="78" width="72" height="8"/>
    <rect x="178" y="84" width="76" height="8"/>
    <rect x="8" y="126" width="48" height="8"/>
    <rect x="132" y="78" width="62" height="8"/>
    <rect x="118" y="118" width="84" height="8"/>
  </g>
  <g fill="#111111">
    <rect x="0" y="188" width="14" height="54"/>
    <rect x="14" y="178" width="14" height="64"/>
    <rect x="28" y="200" width="16" height="42"/>
    <rect x="44" y="168" width="16" height="74"/>
    <rect x="60" y="98" width="30" height="144"/>
    <rect x="72" y="52" width="14" height="46"/>
    <rect x="92" y="52" width="14" height="46"/>
    <rect x="90" y="98" width="28" height="144"/>
    <rect x="118" y="190" width="14" height="52"/>
    <rect x="132" y="206" width="16" height="36"/>
    <rect x="148" y="152" width="18" height="90"/>
    <rect x="166" y="166" width="16" height="76"/>
    <rect x="182" y="154" width="20" height="88"/>
    <rect x="202" y="198" width="16" height="44"/>
    <rect x="218" y="136" width="28" height="106"/>
    <rect x="246" y="184" width="10" height="58"/>
  </g>
  <g fill="#2d3138">
    <rect x="62" y="112" width="24" height="28"/>
    <rect x="92" y="112" width="20" height="28"/>
    <rect x="66" y="158" width="20" height="20"/>
    <rect x="96" y="158" width="16" height="20"/>
    <rect x="150" y="174" width="16" height="24"/>
    <rect x="184" y="170" width="14" height="24"/>
    <rect x="224" y="148" width="16" height="28"/>
  </g>
  <g fill="#74787f" opacity="0.8">
    <rect x="18" y="188" width="7" height="42"/>
    <rect x="50" y="182" width="6" height="46"/>
    <rect x="80" y="160" width="8" height="46"/>
    <rect x="104" y="168" width="6" height="48"/>
    <rect x="176" y="180" width="6" height="48"/>
    <rect x="232" y="150" width="7" height="54"/>
  </g>
  <g fill="#0b0b0b">
    <rect x="76" y="14" width="8" height="38"/>
    <rect x="96" y="14" width="8" height="38"/>
    <rect x="72" y="52" width="16" height="12"/>
    <rect x="92" y="52" width="16" height="12"/>
    <rect x="66" y="88" width="46" height="10"/>
    <rect x="60" y="140" width="58" height="10"/>
    <rect x="218" y="128" width="28" height="8"/>
  </g>
  <defs>
    <pattern id="grid" width="10" height="10" patternUnits="userSpaceOnUse">
      <path d="M10 0H0v10" fill="none" stroke="#257fca" stroke-width="1" opacity="0.45"/>
    </pattern>
  </defs>
</svg>
